<svg width="100%" height="100%" viewBox="0 0 417 417" version="1.1" xmlns="http://www.w3.org/2000/svg" xmlns:xlink="http://www.w3.org/1999/xlink" xml:space="preserve" xmlns:serif="http://www.serif.com/" style="fill-rule:evenodd;clip-rule:evenodd;stroke-linecap:round;stroke-linejoin:round;stroke-miterlimit:1.5;">
    <g transform="matrix(1,0,0,1,-5465,-4865)">
        <g id="Mesa-de-trabajo1" serif:id="Mesa de trabajo1" transform="matrix(1,0,0,1,5301.79,4064.36)">
            <rect x="0" y="0" width="4960.63" height="3507.87" style="fill:none;"/>
            <g>
                <g transform="matrix(1.50714,0,0,1.50714,-2500.11,-1495.33)">
                    <g transform="matrix(4.83139e-17,-0.789025,0.789025,4.83139e-17,581.456,3205.99)">
                        <path d="M2132,1591.22C2132,1543.08 2092.92,1504 2044.78,1504L1870.34,1504C1822.2,1504 1783.12,1543.08 1783.12,1591.22L1783.12,1765.66C1783.12,1813.8 1822.2,1852.88 1870.34,1852.88L2044.78,1852.88C2092.92,1852.88 2132,1813.8 2132,1765.66L2132,1591.22Z" style="fill:rgb(255,90,0);"/>
                    </g>
                    <g transform="matrix(1,0,0,1,-3.41643,0)">
                        <g transform="matrix(0.596241,0,0,0.596241,10.3402,806.717)">
                            <path d="M3111.49,1379.01C3141.56,1379.01 3165.98,1403.43 3165.98,1433.5C3165.98,1463.57 3141.56,1487.99 3111.49,1487.99C3081.41,1487.99 3057,1463.57 3057,1433.5C3057,1403.43 3081.41,1379.01 3111.49,1379.01ZM3111.49,1413.96C3122.27,1413.96 3131.03,1422.71 3131.03,1433.5C3131.03,1444.29 3122.27,1453.04 3111.49,1453.04C3100.7,1453.04 3091.95,1444.29 3091.95,1433.5C3091.95,1422.71 3100.7,1413.96 3111.49,1413.96Z" style="fill:white;"/>
                        </g>
                        <g transform="matrix(1,0,0,1,-339.278,11.9187)">
                            <path d="M2233.3,1649.51C2233.3,1649.51 2268,1646.74 2268,1616.72C2268,1586.7 2270.13,1570.91 2309.25,1571.28" style="fill:none;stroke:white;stroke-width:33.33px;"/>
                        </g>
                        <g transform="matrix(1,0,0,-1,-339.278,3310.94)">
                            <path d="M2233.3,1649.51C2233.3,1649.51 2268,1646.74 2268,1616.72C2268,1586.7 2270.13,1570.91 2309.25,1571.28" style="fill:none;stroke:white;stroke-width:33.33px;"/>
                        </g>
                        <g transform="matrix(1,0,0,1,-317.278,12.4685)">
                            <path d="M2182.82,1616.47L2182.82,1570.72" style="fill:none;stroke:white;stroke-width:33.33px;"/>
                        </g>
                        <g transform="matrix(1,0,0,1,-317.278,12.4685)">
                            <path d="M2182.82,1677.45L2182.82,1727.2" style="fill:none;stroke:white;stroke-width:33.33px;"/>
                        </g>
                    </g>
                    <g transform="matrix(1,0,0,1,-4.05562,0)">
                        <g transform="matrix(0.596241,0,0,0.596241,10.3402,806.717)">
                            <path d="M3111.49,1379.01C3141.56,1379.01 3165.98,1403.43 3165.98,1433.5C3165.98,1463.57 3141.56,1487.99 3111.49,1487.99C3081.41,1487.99 3057,1463.57 3057,1433.5C3057,1403.43 3081.41,1379.01 3111.49,1379.01ZM3111.49,1413.96C3122.27,1413.96 3131.03,1422.71 3131.03,1433.5C3131.03,1444.29 3122.27,1453.04 3111.49,1453.04C3100.7,1453.04 3091.95,1444.29 3091.95,1433.5C3091.95,1422.71 3100.7,1413.96 3111.49,1413.96Z" style="fill:white;"/>
                        </g>
                        <g transform="matrix(1,0,0,1,-339.278,11.9187)">
                            <path d="M2234.63,1666.12C2234.63,1666.12 2284.67,1660.93 2284.67,1616.72C2284.67,1610.33 2284.73,1604.67 2285.38,1599.76C2285.83,1596.28 2286.05,1593.26 2288.33,1591.41C2292.28,1588.22 2298.87,1587.85 2309.1,1587.94C2318.29,1588.03 2325.83,1580.63 2325.92,1571.43C2326,1562.24 2318.61,1554.7 2309.41,1554.61C2288.31,1554.41 2275.48,1558.92 2267.34,1565.52C2255.03,1575.5 2251.33,1592.25 2251.33,1616.72C2251.33,1623.74 2247.11,1627.46 2243.05,1629.54C2237.5,1632.38 2231.98,1632.9 2231.98,1632.9C2222.81,1633.63 2215.96,1641.67 2216.69,1650.84C2217.42,1660.01 2225.46,1666.86 2234.63,1666.12Z" style="fill:white;"/>
                        </g>
                        <g transform="matrix(1,0,0,-1,-339.278,3310.94)">
                            <path d="M2231.98,1632.9C2231.98,1632.9 2237.5,1632.38 2243.05,1629.54C2247.11,1627.46 2251.33,1623.74 2251.33,1616.72C2251.33,1592.25 2255.03,1575.5 2267.34,1565.52C2275.48,1558.92 2288.31,1554.41 2309.41,1554.61C2318.61,1554.7 2326,1562.24 2325.92,1571.43C2325.83,1580.63 2318.29,1588.03 2309.1,1587.94C2298.87,1587.85 2292.28,1588.22 2288.33,1591.41C2286.05,1593.26 2285.83,1596.28 2285.38,1599.76C2284.73,1604.67 2284.67,1610.33 2284.67,1616.72C2284.67,1660.93 2234.63,1666.12 2234.63,1666.12C2225.46,1666.86 2217.42,1660.01 2216.69,1650.84C2215.96,1641.67 2222.81,1633.63 2231.98,1632.9L2231.98,1632.9Z" style="fill:white;"/>
                        </g>
                        <g transform="matrix(1,0,0,1,-317.278,12.4685)">
                            <path d="M2199.48,1616.47L2199.48,1570.72C2199.48,1561.52 2192.01,1554.06 2182.82,1554.06C2173.62,1554.06 2166.15,1561.52 2166.15,1570.72L2166.15,1616.47C2166.15,1625.67 2173.62,1633.14 2182.82,1633.14C2192.01,1633.14 2199.48,1625.67 2199.48,1616.47Z" style="fill:white;"/>
                        </g>
                        <g transform="matrix(1,0,0,1,-317.278,12.4685)">
                            <path d="M2166.15,1677.45L2166.15,1727.2C2166.15,1736.4 2173.62,1743.87 2182.82,1743.87C2192.01,1743.87 2199.48,1736.4 2199.48,1727.2L2199.48,1677.45C2199.48,1668.25 2192.01,1660.78 2182.82,1660.78C2173.62,1660.78 2166.15,1668.25 2166.15,1677.45Z" style="fill:white;"/>
                        </g>
                    </g>
                </g>
            </g>
            <g id="Capa1">
            </g>
        </g>
    </g>
</svg>
